# xmcd CD database file
#
# Track frame offsets:
#	150
#	18442
#	38764
#	62941
#	76979
#	102293
#	116497
#	139086
#	158508
#	177258
#	200001
#	217273
#	239387
#	261695
#
# Disc length: 3556 seconds
#
# Revision: 3
# Processed by: cddbd v1.5.2PL0 Copyright (c) Steve Scherf et al.
# Submitted via: CDex 1.51
#
DISCID=cb0de20e
DTITLE=Paulo Meyer and The Burning Bush - Hooked On The Blues
DYEAR=1900
DGENRE=Blues
TTITLE0=My Move
TTITLE1=Bring It On Home
TTITLE2=Kooked
TTITLE3=Johnny B. Good
TTITLE4=Light My Fire
TTITLE5=Who'll Stop The Rain
TTITLE6=Just A Little Bit
TTITLE7=Só Tomando Uma
TTITLE8=I Just Want To Make Love To You
TTITLE9=Baby What You Want Me To Do
TTITLE10=Desencontros
TTITLE11=Terno Azul
TTITLE12=I'm Going Home
TTITLE13=Nunca
EXTD=YEAR: 1900
EXTT0=
EXTT1=
EXTT2=
EXTT3=
EXTT4=
EXTT5=
EXTT6=
EXTT7=
EXTT8=
EXTT9=
EXTT10=
EXTT11=
EXTT12=
EXTT13=
PLAYORDER=
